HIERARCHY
ROOT root
{
	OFFSET 0.000000 0.000000 0.000000
	CHANNELS 6 Xposition Yposition Zposition Zrotation Yrotation Xrotation
	JOINT lhip
	{
		OFFSET 0.058581 -0.082280 -0.017664
		CHANNELS 3 Zrotation Yrotation Xrotation
		JOINT lknee
		{
			OFFSET 0.043451 -0.386469 0.008037
			CHANNELS 3 Zrotation Yrotation Xrotation
			JOINT lankle
			{
				OFFSET -0.014790 -0.426874 -0.037428
				CHANNELS 3 Zrotation Yrotation Xrotation
				JOINT ltoe
				{
					OFFSET 0.041054 -0.060286 0.122042
					CHANNELS 3 Zrotation Yrotation Xrotation
					End Site
					{
						OFFSET 0.000000 0.000000 0.000000
					}
				}
			}
		}
	}
	JOINT rhip
	{
		OFFSET -0.060310 -0.090513 -0.013543
		CHANNELS 3 Zrotation Yrotation Xrotation
		JOINT rknee
		{
			OFFSET -0.043257 -0.383688 -0.004843
			CHANNELS 3 Zrotation Yrotation Xrotation
			JOINT rankle
			{
				OFFSET 0.019056 -0.420046 -0.034562
				CHANNELS 3 Zrotation Yrotation Xrotation
				JOINT rtoe
				{
					OFFSET -0.034840 -0.062106 0.130323
					CHANNELS 3 Zrotation Yrotation Xrotation
					End Site
					{
						OFFSET 0.000000 0.000000 0.000000
					}
				}
			}
		}
	}
	JOINT lowerback
	{
		OFFSET 0.004439 0.124404 -0.038385
		CHANNELS 3 Zrotation Yrotation Xrotation
		JOINT upperback
		{
			OFFSET 0.004488 0.137956 0.026820
			CHANNELS 3 Zrotation Yrotation Xrotation
			JOINT chest
			{
				OFFSET -0.002265 0.056032 0.002855
				CHANNELS 3 Zrotation Yrotation Xrotation
				JOINT lowerneck
				{
					OFFSET -0.013390 0.211636 -0.033468
					CHANNELS 3 Zrotation Yrotation Xrotation
					JOINT upperneck
					{
						OFFSET 0.010113 0.088937 0.050410
						CHANNELS 3 Zrotation Yrotation Xrotation
						End Site
						{
							OFFSET 0.000000 0.000000 0.000000
						}
					}
				}
				JOINT lclavicle
				{
					OFFSET 0.071702 0.114000 -0.018898
					CHANNELS 3 Zrotation Yrotation Xrotation
					JOINT lshoulder
					{
						OFFSET 0.122921 0.045205 -0.019046
						CHANNELS 3 Zrotation Yrotation Xrotation
						JOINT lelbow
						{
							OFFSET 0.255332 -0.015649 -0.022946
							CHANNELS 3 Zrotation Yrotation Xrotation
							JOINT lwrist
							{
								OFFSET 0.265709 0.012698 -0.007375
								CHANNELS 3 Zrotation Yrotation Xrotation
								End Site
								{
									OFFSET 0.000000 0.000000 0.000000
								}
							}
						}
					}
				}
				JOINT rclavicle
				{
					OFFSET -0.082954 0.112472 -0.023707
					CHANNELS 3 Zrotation Yrotation Xrotation
					JOINT rshoulder
					{
						OFFSET -0.113228 0.046853 -0.008472
						CHANNELS 3 Zrotation Yrotation Xrotation
						JOINT relbow
						{
							OFFSET -0.260127 -0.014369 -0.031269
							CHANNELS 3 Zrotation Yrotation Xrotation
							JOINT rwrist
							{
								OFFSET -0.269108 0.006794 -0.006027
								CHANNELS 3 Zrotation Yrotation Xrotation
								End Site
								{
									OFFSET 0.000000 0.000000 0.000000
								}
							}
						}
					}
				}
			}
		}
	}
}
MOTION
Frames: 10
Frame Time: 0.033333
-0.859579 0.806873 1.016537 -1.301505 3.186428 81.662006 -0.897572 3.348527 8.161346 -1.217300 -1.603816 4.525814 4.581551 14.022491 -12.719134 0.000000 -0.000000 0.000000 2.235374 -1.826868 -6.771108 -0.817293 -0.000074 44.412814 6.160968 -4.727826 -6.753593 0.000000 -0.000000 0.000000 -1.917409 -1.082489 9.506477 -0.445850 -2.184462 2.377917 -1.583262 -1.777393 2.290822 0.000787 8.838357 -0.908087 0.245782 10.640115 1.938349 -25.915779 -2.617311 -0.721194 -57.669346 -9.281377 11.738009 13.438442 -32.656346 4.367548 2.625613 -6.323147 -5.375132 24.440019 1.977792 1.064399 61.520974 -1.724941 15.810261 -26.494933 29.376556 -12.867976 11.486651 4.614003 2.451945 
-0.854164 0.796207 1.020719 0.010014 2.905056 80.366459 -0.994202 4.201531 10.747974 -1.375675 -2.572930 3.634468 5.420664 12.897257 -14.207077 0.000000 -0.000000 0.000000 1.291378 -0.759074 -7.286101 -1.336040 0.095625 41.946679 6.112075 -5.643965 -5.999274 0.000000 -0.000000 0.000000 -2.552012 -1.600092 10.872450 -0.081237 -2.447576 2.640231 -1.160388 -2.529847 2.111760 0.239979 9.640426 -1.189031 -0.615281 10.960167 3.612902 -28.140904 -2.908167 -0.277220 -56.980425 -11.237908 10.369923 13.945940 -32.469244 3.076962 1.252097 -7.613557 -2.108121 25.071276 1.210095 0.685006 60.641336 -1.700841 15.785403 -26.045437 28.233460 -12.208899 13.039490 4.430425 3.424685 
-0.849369 0.783685 1.020687 1.550145 3.066248 80.300810 -0.604782 4.581880 11.852610 -1.618597 -3.738854 3.041566 5.592610 12.060706 -14.689185 0.000000 -0.000000 0.000000 0.992854 0.163381 -8.694137 -1.238367 1.289948 38.077121 6.335389 -6.085929 -5.391873 0.000000 -0.000000 0.000000 -2.553917 -2.520353 10.939679 0.075232 -2.565294 2.834575 -1.030950 -2.772822 2.268296 0.300591 10.074525 -1.595410 -0.506053 11.142548 5.131865 -27.617006 -3.224780 -0.911648 -58.754657 -12.380543 10.801761 14.539692 -33.026717 3.021744 0.339082 -7.876735 -1.822458 24.694503 0.768095 0.885734 61.257973 -1.933911 15.619008 -26.652003 28.016794 -11.500412 14.422105 4.188849 4.047415 
-0.843658 0.766914 1.018991 3.520617 3.218011 80.324604 -0.235790 5.008163 13.503450 -1.812959 -5.448025 1.944935 5.447703 11.382826 -15.415643 0.000000 -0.000000 0.000000 0.585579 0.994562 -10.332759 -1.145878 3.348575 31.941297 7.376904 -5.299993 -5.220335 0.000000 -0.000000 0.000000 -2.566773 -3.315609 11.096160 0.347939 -2.825560 3.039436 -0.756471 -3.262307 2.432855 0.381963 10.439729 -1.637631 -0.510386 11.226451 5.659127 -27.507752 -3.040769 -0.975133 -59.405583 -13.706958 11.764701 14.413293 -35.009875 3.035662 0.988446 -8.300899 -2.378136 24.730374 0.122156 0.873262 60.927086 -2.376630 15.868534 -26.647337 27.646514 -11.456582 14.563128 3.865953 4.493690 
-0.840632 0.756368 1.017520 4.612321 3.334462 80.363777 0.086498 5.231079 14.378777 -1.968530 -6.208708 1.518944 5.317813 10.926411 -15.962117 0.000000 -0.000000 0.000000 0.419349 1.371914 -11.140341 -1.168800 4.767516 27.674824 8.080162 -4.443589 -4.969907 0.000000 -0.000000 0.000000 -2.485221 -3.671667 11.183429 0.530529 -3.020807 3.275634 -0.641868 -3.508430 2.484646 0.481257 10.714055 -1.737761 -0.590944 11.157560 5.703841 -27.496938 -2.773794 -1.090618 -59.548160 -14.110034 12.222593 14.102198 -36.538529 3.416610 1.097293 -8.662204 -2.502399 24.957361 -0.370760 0.830656 60.725871 -2.552117 15.807780 -26.754298 27.316478 -11.801649 14.522718 3.780784 4.494250 
-0.836734 0.741326 1.015341 5.935962 3.546363 80.241709 0.653729 5.586092 15.660711 -2.170711 -7.230071 1.254398 4.904647 10.362091 -16.964309 0.000000 -0.000000 0.000000 0.219329 1.811939 -11.793544 -1.401817 5.843219 21.674610 9.204048 -3.336274 -4.315647 0.000000 -0.000000 0.000000 -2.230242 -4.188339 11.452827 0.700455 -3.126165 3.612015 -0.510994 -3.726808 2.598990 0.714368 11.016282 -1.798993 -0.824752 11.014723 5.662332 -27.549760 -2.231496 -1.298467 -59.641437 -14.355264 12.711089 13.621729 -38.686636 4.110959 0.812364 -9.195112 -2.647641 25.213689 -1.107540 0.700273 60.680947 -2.838869 15.611096 -26.996659 26.842592 -12.410380 14.480642 3.723847 4.298950 
-0.832942 0.725674 1.012974 6.698663 3.523029 80.127232 0.897593 5.991338 17.022880 -2.221415 -8.068512 1.012802 4.727880 9.992609 -17.860140 0.000000 -0.000000 0.000000 -0.124517 1.692802 -12.584419 -1.494713 6.258912 15.972199 10.202458 -2.136210 -3.216571 0.000000 -0.000000 0.000000 -1.942538 -4.355355 11.759910 0.690886 -3.060840 3.771436 -0.429354 -3.816032 2.574141 0.828302 11.332246 -1.573549 -0.831270 11.038434 5.710529 -27.605597 -1.517051 -1.366541 -59.562853 -14.271402 12.893913 12.917487 -40.278989 4.923628 0.013920 -9.980212 -2.767999 25.457548 -1.888633 0.804278 60.768508 -3.161774 15.149480 -27.189511 26.327465 -12.942014 14.774589 3.636140 4.291940 
-0.829382 0.709415 1.010209 7.421272 3.529432 80.034510 1.245167 6.431361 18.196598 -2.335837 -8.767961 1.156992 4.584628 9.704534 -18.817634 0.000000 -0.000000 0.000000 -0.391611 1.076132 -13.383645 -1.041705 5.748925 10.807004 10.503686 -1.043732 -2.847108 0.000000 -0.000000 0.000000 -1.513455 -4.441794 12.030808 0.653622 -3.010675 3.893774 -0.380248 -3.902673 2.618901 0.961029 11.497299 -1.179304 -0.931030 11.057939 5.788375 -27.670055 -0.740661 -1.447751 -59.522231 -13.960573 12.794342 12.323602 -41.198583 5.412721 -0.678629 -10.000429 -2.627168 25.573126 -2.579840 0.903560 60.960141 -3.456386 14.560109 -27.302417 25.873192 -13.317513 15.064638 3.301666 4.381964 
-0.826198 0.692607 1.007069 7.986596 3.546551 80.054873 1.669353 6.887818 19.183416 -2.502841 -9.443717 1.516539 4.477181 9.374522 -19.759110 0.000000 -0.000000 0.000000 -0.534556 0.416371 -14.329601 -0.079287 4.970043 6.682108 10.879213 0.116783 -2.396004 0.000000 -0.000000 0.000000 -1.059506 -4.431775 12.026449 0.664916 -2.919892 4.162475 -0.306355 -3.965727 2.665393 1.088318 11.727256 -0.566348 -1.076927 11.017905 5.843655 -27.813917 -0.128851 -1.221320 -59.496177 -13.612566 12.534888 12.366864 -41.097246 5.321307 -1.609335 -10.038142 -2.416945 25.722156 -3.046739 1.181881 61.006210 -3.660407 13.916999 -27.457536 25.347392 -13.533758 15.686396 3.183307 4.275826 
-0.822835 0.670607 1.002586 8.637755 3.580853 80.237123 2.114181 7.292053 20.237727 -2.504880 -10.356027 1.985299 4.336491 9.121217 -20.834373 0.000000 -0.000000 0.000000 -0.119936 0.171501 -15.637311 0.151071 4.683693 3.265246 11.682499 0.982839 -1.317031 0.000000 -0.000000 0.000000 -0.511040 -4.494059 11.990486 0.726394 -2.737258 4.406768 -0.199792 -4.047200 2.726234 1.153356 11.764006 0.090506 -1.218978 11.033327 5.787475 -27.838808 0.544046 -0.911801 -59.598103 -12.905981 11.984272 12.725449 -39.675176 4.886823 -2.508497 -9.664152 -1.913809 25.767745 -3.546915 1.308344 61.057208 -3.806832 13.254401 -27.485676 24.506004 -13.478451 16.497041 2.871855 4.127464 
